<svg xmlns="http://www.w3.org/2000/svg" viewBox="0 0 300 300">
  <!-- Background -->
  <rect width="300" height="300" fill="#f8f8f8" />
  
  <!-- Planet with rings -->
  <ellipse cx="150" cy="150" rx="70" ry="70" fill="#e6e6e6" stroke="#d1d1d1" stroke-width="1" />
  <ellipse cx="150" cy="150" rx="90" ry="30" fill="none" stroke="#d1d1d1" stroke-width="2" />
  
  <!-- Stars -->
  <polygon points="60,50 63,60 73,60 65,67 68,77 60,72 52,77 55,67 47,60 57,60" fill="#d9d2e9" />
  <polygon points="240,70 243,80 253,80 245,87 248,97 240,92 232,97 235,87 227,80 237,80" fill="#d9d2e9" />
  <polygon points="80,240 83,250 93,250 85,257 88,267 80,262 72,267 75,257 67,250 77,250" fill="#d9d2e9" />
  <polygon points="220,230 223,240 233,240 225,247 228,257 220,252 212,257 215,247 207,240 217,240" fill="#d9d2e9" />
  
  <!-- Small dots -->
  <circle cx="40" cy="130" r="2" fill="#d9d2e9" />
  <circle cx="260" cy="140" r="2" fill="#d9d2e9" />
  <circle cx="110" cy="50" r="2" fill="#d9d2e9" />
  <circle cx="190" cy="260" r="2" fill="#d9d2e9" />
  <circle cx="30" cy="200" r="1.5" fill="#d9d2e9" />
  <circle cx="270" cy="190" r="1.5" fill="#d9d2e9" />
</svg>